# xmcd
#
# Track frame offsets:
#	150
#	20713
#	38964
#	63575
#	98287
#	118380
#	150842
#	164713
#	190377
#
# Disc length: 2963 seconds
#
# Revision: 2
# Processed by: cddbd v1.5.2PL0 Copyright (c) Steve Scherf et al.
# Submitted via: Jack! The Knife 20 Magnifico
#
DISCID=750b9109
DTITLE=Stratovarius - Stratovarius
DYEAR=2005
DGENRE=Metal
TTITLE0=Maniac Dance
TTITLE1=Fight!!!
TTITLE2=Just Carry On
TTITLE3=Back To Madness
TTITLE4=Gypsy In Me
TTITLE5=Götterdämmerung (Zenith Of Power)
TTITLE6=The Land Of Ice And Snow
TTITLE7=Leave The Tribe
TTITLE8=United
EXTD=Stratovarius
EXTT0=Timo Tolkki
EXTT1=Timo Tolkki
EXTT2=Timo Tolkki
EXTT3=Timo Tolkki
EXTT4=Timo Tolkki
EXTT5=Timo Tolkki
EXTT6=Timo Tolkki
EXTT7=Timo Tolkki
EXTT8=Timo Tolkki
PLAYORDER=
